<svg
  version="1.0"
  xmlns="http://www.w3.org/2000/svg"
  xmlns:xlink="http://www.w3.org/1999/xlink"
  x="0"
  y="0"
  width="800"
  height="600"
  viewBox="0 0 340.000000 250.000000"
  preserveAspectRatio="xMidYMid meet"
  color-interpolation-filters="sRGB"
>
  <g fill="#c62525"
     transform="translate(50.62786865234375,90.91287231445312)">
    <g fill="#c62525" transform="translate(0,0)">
      <svg viewBox="0 0 60 60" x="0" y="0" width="68.174252790367" height="68.174252790367"
           class="image-svg-svg bn">
        <g mask="url(#5a19471d-efb8-446d-bd47-cd4c2b782712)">
          <g>
            <svg xmlns="http://www.w3.org/2000/svg" xmlns:xlink="http://www.w3.org/1999/xlink"
                 viewBox="0 0 60 60" version="1.1"
                 x="0" y="0" width="60" height="60">
              <g fill-rule="evenodd">
                <g>
                  <path d="M49.001,0 L10.999,0 C4.934,0 0,4.934 0,10.999 L0,49.001 C0,55.066 4.934,60 10.999,60 L49.001,60 C55.065,60 60,55.066 60,49.001 L60,10.999 C60,4.934 55.065,0 49.001,0"/>
                </g>
              </g>
            </svg>
          </g>
          <g filter="url(#colors3041816095)">
            <svg fill="#f33422" xmlns="http://www.w3.org/2000/svg" xmlns:xlink="http://www.w3.org/1999/xlink" version="1.1" x="9.5" y="9.5" viewBox="12.180000305175781 7.020999908447266 75.63999938964844 85.94500732421875" enable-background="new 0 0 100 100" xml:space="preserve" width="41" height="41"><path d="M77.018,7.021c-0.586,7.217-2.695,12.479-6.352,15.788c-6.295-4.118-13.148-6.114-20.589-6.002  c-7.202-0.112-13.944,1.773-20.24,5.653c-4.452-3.42-6.561-8.571-6.337-15.438c-10.413,11.111-12.354,20.422-5.835,27.973  c-3.657,6.394-5.485,13.038-5.485,19.892c0,10.287,3.713,19.276,11.152,26.926c7.427,7.44,16.346,11.153,26.745,11.153  c10.302,0,19.152-3.713,26.591-11.153c7.439-7.649,11.152-16.639,11.152-26.926c0-7.203-1.717-13.666-5.15-19.389  C88.965,27.261,87.066,17.783,77.018,7.021z M64.496,69.123c-4.02,4.007-8.822,6.003-14.406,6.003  c-5.499,0-10.357-1.996-14.587-6.003c-4.006-4.006-6.002-8.863-6.002-14.586c0-5.709,1.996-10.567,6.002-14.573  c4.118-4.118,8.976-6.114,14.587-6.002c5.583-0.112,10.386,1.884,14.406,6.002c3.992,4.006,6.002,8.864,6.002,14.573  C70.498,60.26,68.488,65.117,64.496,69.123z"/></svg>
          </g>
        </g>
        <mask id="5a19471d-efb8-446d-bd47-cd4c2b782712">
          <g fill="white">
            <svg xmlns="http://www.w3.org/2000/svg" xmlns:xlink="http://www.w3.org/1999/xlink"
                 viewBox="0 0 60 60" version="1.1"
                 x="0" y="0" width="60" height="60">
              <g fill-rule="evenodd">
                <g>
                  <path d="M49.001,0 L10.999,0 C4.934,0 0,4.934 0,10.999 L0,49.001 C0,55.066 4.934,60 10.999,60 L49.001,60 C55.065,60 60,55.066 60,49.001 L60,10.999 C60,4.934 55.065,0 49.001,0"/>
                </g>
              </g>
            </svg>
          </g>
          <g fill="black">
            <svg xmlns="http://www.w3.org/2000/svg" xmlns:xlink="http://www.w3.org/1999/xlink" version="1.1" x="9.5" y="9.5" viewBox="12.180000305175781 7.020999908447266 75.63999938964844 85.94500732421875" enable-background="new 0 0 100 100" xml:space="preserve" width="41" height="41"><path d="M77.018,7.021c-0.586,7.217-2.695,12.479-6.352,15.788c-6.295-4.118-13.148-6.114-20.589-6.002  c-7.202-0.112-13.944,1.773-20.24,5.653c-4.452-3.42-6.561-8.571-6.337-15.438c-10.413,11.111-12.354,20.422-5.835,27.973  c-3.657,6.394-5.485,13.038-5.485,19.892c0,10.287,3.713,19.276,11.152,26.926c7.427,7.44,16.346,11.153,26.745,11.153  c10.302,0,19.152-3.713,26.591-11.153c7.439-7.649,11.152-16.639,11.152-26.926c0-7.203-1.717-13.666-5.15-19.389  C88.965,27.261,87.066,17.783,77.018,7.021z M64.496,69.123c-4.02,4.007-8.822,6.003-14.406,6.003  c-5.499,0-10.357-1.996-14.587-6.003c-4.006-4.006-6.002-8.863-6.002-14.586c0-5.709,1.996-10.567,6.002-14.573  c4.118-4.118,8.976-6.114,14.587-6.002c5.583-0.112,10.386,1.884,14.406,6.002c3.992,4.006,6.002,8.864,6.002,14.573  C70.498,60.26,68.488,65.117,64.496,69.123z"/></svg>
          </g>
        </mask>
      </svg>
    </g>
    <g transform="translate(75.17425537109375,11.122127532958984)">
      <g>
        <path d="M10.06-28.77L10.29-43.45L2.64-43.29L3.14 2.04L30.64 0.71L30.36-29.43ZM9.96-21.29L23.21-22.71L23.76-6.05L9.68-5.12ZM43.56-22.11L58.85-22.50L59.13-17.11L47.80-17.21L47.52-10.56L65.17-11.05L65.50-29.59L36.24-28.82L36.91 1.93L66.38 1.59L65.94-5.83L43.89-4.79ZM81.02-22.33L87.12-22.71L86.84-29.21L81.23-29.04L81.67-39.77L73.59-40.09L73.59-28.82L69.80-28.71L69.96-21.50L73.59-21.78L73.59 1.43L86.19 0.77L85.75-6.60L80.36-5.61ZM101.48-22.33L107.58-22.71L107.31-29.21L101.70-29.04L102.14-39.77L94.05-40.09L94.05-28.82L90.26-28.71L90.42-21.50L94.05-21.78L94.05 1.43L106.65 0.77L106.21-6.60L100.82-5.61ZM119.30-22.11L134.59-22.50L134.86-17.11L123.53-17.21L123.26-10.56L140.91-11.05L141.24-29.59L111.98-28.82L112.64 1.93L142.12 1.59L141.68-5.83L119.63-4.79ZM164.23-29.54L154.72-26.23L154.72-29.81L147.24-29.64L146.85 2.48L155.10 2.15L154.83-19.14L166.21-22.05Z"
              transform="translate(-2.64, 43.45)"/>
      </g>
    </g>
  </g>
</svg>

