<?xml version="1.0" standalone="no"?><!DOCTYPE svg PUBLIC "-//W3C//DTD SVG 1.1//EN"
        "http://www.w3.org/Graphics/SVG/1.1/DTD/svg11.dtd">
<svg t="1594047287382" class="icon" viewBox="0 0 200 110" version="1.1" xmlns="http://www.w3.org/2000/svg" p-id="5068"
     xmlns:xlink="http://www.w3.org/1999/xlink" width="242.3828125" height="200">
    <g data-v-5a1f2754="" fill="#ff2351" class="icon-text-wrapper icon-svg-group iconsvg"
       transform="translate(29.18000030517578,11.01734161376953)">
        <g class="iconsvg-imagesvg" transform="translate(38.819997787475586,0)">
            <rect fill="#ff2351" fill-opacity="0" stroke-width="2" x="0" y="0" width="60" height="60"
                  class="image-rect"></rect>
            <svg x="0" y="0" width="60" height="60" filtersec="colorsb4331392467" class="image-svg-svg">
                <svg xmlns="http://www.w3.org/2000/svg" viewBox="0 0 46.51 37.12">
                    <title>A</title>
                    <g data-name="图层 2">
                        <g data-name="Layer 2">
                            <path d="M13.46 34.64l1.61-4.09h13.52l2.54 6.57H44l-6.71-16h-1.95v-2.48h3.42l-1-2.48L30.94 0H15.45v2.47h1.95l-5.88 13.69h3.93v2.48H2.52v2.47h4.35L0 37.12h12.48zm8.81-16l2.15-5.49L25.7 9.9l1.3 3.25-1.18 3h5.17v2.48H24l1.72 4.5H18l1.76-4.5z"
                                  fill="#ff2351"></path>
                            <path fill="#ff2351" d="M7.96 8.74h2.48v2.47H7.96zM5.48 11.21h2.48v2.47H5.48z"></path>
                            <path d="M19.6 34.64H16l1.62-4.09h13.5l2.54 6.57h12.85l-6.71-16h-4.46v-2.48h8.17v-2.48h-3.27L33.46 0H21l-1.08 2.47-5.87 13.69h1.4v2.48h-5L9.4 21.11l-6.88 16H19.6zm4.41-16h.79l.77-2 .1-.26.1-.25 1.18-3 1.15 3h2.84v2.48h-4.41l1.73 4.5h-7.75l1.76-4.5z"
                                  fill="#00d8eb"></path>
                            <path fill="#00d8eb" d="M43.51 13.69h2.48v2.47h-2.48z"></path>
                            <path d="M28.59 30.55h2.53l2.54 6.57H44l-6.71-16h-1.95v-2.48h3.42l-1-2.48L30.94 0H21l-1.08 2.47-5.87 13.69h1.4v2.48h-5L9.4 21.11l-6.88 16h10l1-2.48 1.61-4.09h13.46zM25.7 9.9l1.3 3.25 1.15 3h2.84v2.48h-4.46l1.73 4.5H18l1.76-4.5h2.52l2.15-5.49z"
                                  fill="#000b34"></path>
                        </g>
                    </g>
                </svg>
            </svg> <!---->
        </g>
        <g transform="translate(0,67)">
            <g fill-rule="" class="tp-name iconsvg-namesvg">
                <g>
                    <path d="M14.41-13.71L14.41-13.71L14.41-4.22Q14.41-3.34 15.12-2.29L15.12-2.29Q15.47-1.58 15.47-1.23L15.47-1.23Q15.64 0.35 13.71 0.18L13.71 0.18Q12.13 0.18 11.60-1.58L11.60-1.58Q9.49 0.18 6.68 0.18L6.68 0.18Q1.58 0 1.23-4.57L1.23-4.57Q1.23-8.79 9.14-11.25L9.14-11.25Q10.55-11.78 11.25-11.95L11.25-11.95Q10.90-13.54 8.26-13.54L8.26-13.54Q5.27-13.71 4.92-11.25L4.92-11.25Q1.76-11.43 1.58-14.06L1.58-14.06Q1.76-17.93 7.91-18.28L7.91-18.28Q14.41-18.46 14.41-13.71ZM11.60-5.45L11.60-5.45L11.60-10.02Q11.25-9.84 10.37-9.49L10.37-9.49Q6.50-8.44 6.68-5.98L6.68-5.98Q6.86-4.04 9.32-3.87L9.32-3.87Q10.72-3.87 11.60-5.45ZM35.86 0.18L35.86 0.18L35.33 0Q34.80 0 34.98-0.18L34.98-0.18Q34.98-0.35 35.16-0.35L35.16-0.35Q35.33-1.05 35.33-1.76L35.33-1.76Q35.33-2.11 32.52-5.63L32.52-5.63Q31.82-6.50 31.64-6.68L31.64-6.68Q31.29-6.15 30.06-3.69L30.06-3.69Q27.95 0 27.60 0.18L27.60 0.18L26.89 0L26.72-0.35Q27.07-0.88 27.25-1.05L27.25-1.05Q27.25-1.41 25.14-4.04L25.14-4.04Q21.45-8.79 20.57-10.55L20.57-10.55Q17.93-15.82 21.09-17.05L21.09-17.05Q24.96-18.11 25.84-15.47L25.84-15.47Q26.37-12.30 29.53-7.38L29.53-7.38Q29.71-7.56 30.06-8.44L30.06-8.44Q32.87-14.41 33.75-14.94L33.75-14.94L34.28-14.77Q34.45-14.41 34.28-13.71L34.28-13.71Q34.28-13.36 34.28-13.18L34.28-13.18Q34.28-12.13 37.44-8.09L37.44-8.09Q37.97-7.21 38.14-7.03L38.14-7.03Q39.90-10.90 39.90-14.77L39.90-14.77Q39.55-18.11 36.56-18.63L36.56-18.63Q36.56-18.81 36.56-19.16L36.56-19.16Q36.39-19.51 36.39-19.69L36.39-19.69Q36.39-21.45 38.32-21.45L38.32-21.45Q42.01-21.27 42.36-16.00L42.36-16.00Q39.55-3.52 35.86 0.18ZM60.64-11.95L60.64-11.95L60.47-11.60L47.99-4.75Q49.39-2.46 52.91-2.46L52.91-2.46Q54.84-2.46 57.13-4.39L57.13-4.39Q58.01-5.10 58.36-5.10L58.36-5.10Q58.89-5.10 59.06-4.75L59.06-4.75Q59.41-4.22 59.41-3.69L59.41-3.69Q59.06-0.18 52.56 0.18L52.56 0.18Q44.82-0.35 44.12-8.61L44.12-8.61Q44.82-17.93 52.21-18.46L52.21-18.46Q56.25-18.46 59.06-13.89L59.06-13.89Q60.12-12.13 60.64-11.95ZM47.29-6.50L47.29-6.50L54.67-10.55Q53.26-12.48 51.33-12.48L51.33-12.48Q47.46-12.13 47.11-7.73L47.11-7.73Q47.11-7.03 47.29-6.50ZM73.48-14.41L73.48-14.41L73.13-14.41Q72.60-14.59 71.89-15.29L71.89-15.29Q71.19-16.00 69.61-16.00L69.61-16.00Q66.97-15.82 66.80-13.89L66.80-13.89Q66.80-12.30 70.66-11.43L70.66-11.43Q76.99-10.20 76.99-5.63L76.99-5.63Q76.64-0.35 69.43 0L69.43 0Q62.75 0 62.58-4.92L62.58-4.92Q63.11-8.61 64.69-8.96L64.69-8.96Q64.86-8.96 65.39-8.09L65.39-8.09Q65.57-7.73 65.57-7.73L65.57-7.73Q66.09-7.38 66.97-7.56L66.97-7.56Q67.32-7.56 67.50-7.56L67.50-7.56Q68.38-7.38 68.55-6.50L68.55-6.50Q68.55-6.50 68.38-6.15L68.38-6.15Q68.20-5.63 68.20-5.27L68.20-5.27Q68.38-4.22 70.14-4.04L70.14-4.04Q73.48-4.22 73.65-6.50L73.65-6.50Q73.65-8.61 69.26-9.49L69.26-9.49Q63.98-10.55 63.98-13.71L63.98-13.71Q64.16-18.28 70.49-18.46L70.49-18.46Q74.88-18.28 75.06-16.88L75.06-16.88Q75.06-16.70 74.36-16.00L74.36-16.00Q74.00-15.82 73.83-15.64L73.83-15.64Q73.65-15.47 73.65-15.12L73.65-15.12Q73.48-14.59 73.48-14.41ZM95.10-8.79L95.10-8.79Q94.39-0.35 86.66 0.18L86.66 0.18Q78.93-0.35 78.22-8.79L78.22-8.79Q79.10-17.58 86.66-18.28L86.66-18.28Q94.22-17.58 95.10-8.79ZM91.76-10.90L91.76-10.90Q91.41-15.64 86.66-16.00L86.66-16.00Q82.09-15.64 81.74-10.90L81.74-10.90Q82.09-6.15 86.66-5.80L86.66-5.80Q91.41-6.33 91.76-10.90ZM110.74 3.52L110.74 3.52L110.04 3.16Q110.04 3.16 110.04 2.99L110.04 2.99Q109.86 2.81 109.86 2.64L109.86 2.64Q109.86 2.29 110.74 1.41L110.74 1.41Q114.61-2.29 114.61-7.91L114.61-7.91Q114.26-12.13 111.45-12.30L111.45-12.30Q108.46-12.30 108.81-5.45L108.81-5.45Q109.16 0.18 107.05 0.18L107.05 0.18Q104.77 0.18 105.29-5.80L105.29-5.80Q105.82-12.30 103.18-12.30L103.18-12.30Q100.90-12.30 101.43-5.98L101.43-5.98Q101.95 0.18 99.49 0.18L99.49 0.18Q96.86 0.18 97.73-9.67L97.73-9.67Q98.09-14.41 97.73-15.29L97.73-15.29Q97.56-15.82 97.03-16.35L97.03-16.35Q96.50-17.05 96.15-17.40L96.15-17.40Q96.15-17.58 96.33-17.75L96.33-17.75Q96.33-18.11 96.33-18.11L96.33-18.11Q96.68-18.28 96.68-18.28L96.68-18.28Q97.21-18.28 98.09-18.28L98.09-18.28Q100.55-18.81 101.07-16.88L101.07-16.88Q102.83-18.63 104.77-18.63L104.77-18.63Q106.35-18.63 107.75-16.88L107.75-16.88Q108.11-16.35 108.28-16.17L108.28-16.17Q109.86-18.63 112.50-18.63L112.50-18.63Q117.77-18.28 118.48-9.14L118.48-9.14Q116.54 2.11 110.74 3.52ZM138.87-11.95L138.87-11.95L138.69-11.60L126.21-4.75Q127.62-2.46 131.13-2.46L131.13-2.46Q133.07-2.46 135.35-4.39L135.35-4.39Q136.23-5.10 136.58-5.10L136.58-5.10Q137.11-5.10 137.29-4.75L137.29-4.75Q137.64-4.22 137.64-3.69L137.64-3.69Q137.29-0.18 130.78 0.18L130.78 0.18Q123.05-0.35 122.34-8.61L122.34-8.61Q123.05-17.93 130.43-18.46L130.43-18.46Q134.47-18.46 137.29-13.89L137.29-13.89Q138.34-12.13 138.87-11.95ZM125.51-6.50L125.51-6.50L132.89-10.55Q131.48-12.48 129.55-12.48L129.55-12.48Q125.68-12.13 125.33-7.73L125.33-7.73Q125.33-7.03 125.51-6.50Z"
                          transform="translate(-1.23046875, 21.4453125)"></path>
                </g> <!----> <!----> <!----> <!----> <!----> <!---->
                <g fill="#ff2351" transform="translate(140.63999938964844,0)"></g>
            </g> <!---->
        </g>
    </g>
</svg>
